HIERARCHY
ROOT mixamorig:Hips
{
	OFFSET 0.000000 103.991501 0.000000
	CHANNELS 6 Xposition Yposition Zposition Xrotation Yrotation Zrotation
	JOINT mixamorig:Spine
	{
		OFFSET 0.000000 10.181602 0.131500
		CHANNELS 6 Xposition Yposition Zposition Xrotation Yrotation Zrotation
		JOINT mixamorig:Spine1
		{
			OFFSET 0.000000 10.083504 -1.000800
			CHANNELS 6 Xposition Yposition Zposition Xrotation Yrotation Zrotation
			JOINT mixamorig:Spine2
			{
				OFFSET 0.000000 9.100006 -1.373400
				CHANNELS 6 Xposition Yposition Zposition Xrotation Yrotation Zrotation
				JOINT mixamorig:Neck
				{
					OFFSET 0.000000 16.671707 -2.516200
					CHANNELS 6 Xposition Yposition Zposition Xrotation Yrotation Zrotation
					JOINT mixamorig:Head
					{
						OFFSET 0.000000 9.617905 1.685000
						CHANNELS 6 Xposition Yposition Zposition Xrotation Yrotation Zrotation
						JOINT mixamorig:HeadTop_End
						{
							OFFSET 0.000000 17.815201 2.585000
							CHANNELS 6 Xposition Yposition Zposition Xrotation Yrotation Zrotation
							End Site
							{
								OFFSET 0.000000 13.794495 0.000000
							}
						}
						JOINT mixamorig:LeftEye
						{
							OFFSET 3.067600 6.409500 9.283600
							CHANNELS 6 Xposition Yposition Zposition Xrotation Yrotation Zrotation
							End Site
							{
								OFFSET 0.000000 13.794495 0.000000
							}
						}
						JOINT mixamorig:RightEye
						{
							OFFSET -3.067600 6.409500 9.283500
							CHANNELS 6 Xposition Yposition Zposition Xrotation Yrotation Zrotation
							End Site
							{
								OFFSET 0.000000 13.794495 0.000000
							}
						}
					}
				}
				JOINT mixamorig:LeftShoulder
				{
					OFFSET 4.570400 10.945999 -2.628000
					CHANNELS 6 Xposition Yposition Zposition Xrotation Yrotation Zrotation
					JOINT mixamorig:LeftArm
					{
						OFFSET 10.592400 -0.524597 -2.232100
						CHANNELS 6 Xposition Yposition Zposition Xrotation Yrotation Zrotation
						JOINT mixamorig:LeftForeArm
						{
							OFFSET 27.841499 0.000000 0.000000
							CHANNELS 6 Xposition Yposition Zposition Xrotation Yrotation Zrotation
							JOINT mixamorig:LeftHand
							{
								OFFSET 28.328800 0.000000 0.000000
								CHANNELS 6 Xposition Yposition Zposition Xrotation Yrotation Zrotation
								JOINT mixamorig:LeftHandThumb1
								{
									OFFSET 2.466103 -1.576218 2.681689
									CHANNELS 6 Xposition Yposition Zposition Xrotation Yrotation Zrotation
									JOINT mixamorig:LeftHandThumb2
									{
										OFFSET 3.229782 -1.864716 1.864716
										CHANNELS 6 Xposition Yposition Zposition Xrotation Yrotation Zrotation
										JOINT mixamorig:LeftHandThumb3
										{
											OFFSET 2.652611 -1.531494 1.531488
											CHANNELS 6 Xposition Yposition Zposition Xrotation Yrotation Zrotation
											JOINT mixamorig:LeftHandThumb4
											{
												OFFSET 1.954605 -1.128494 1.128493
												CHANNELS 6 Xposition Yposition Zposition Xrotation Yrotation Zrotation
												End Site
												{
													OFFSET -0.000404 2.523392 0.000683
												}
											}
										}
									}
								}
								JOINT mixamorig:LeftHandIndex1
								{
									OFFSET 9.109299 -0.518112 2.259867
									CHANNELS 6 Xposition Yposition Zposition Xrotation Yrotation Zrotation
									JOINT mixamorig:LeftHandIndex2
									{
										OFFSET 3.676399 0.000000 0.000000
										CHANNELS 6 Xposition Yposition Zposition Xrotation Yrotation Zrotation
										JOINT mixamorig:LeftHandIndex3
										{
											OFFSET 2.883102 0.000000 0.000000
											CHANNELS 6 Xposition Yposition Zposition Xrotation Yrotation Zrotation
											JOINT mixamorig:LeftHandIndex4
											{
												OFFSET 2.392700 0.000000 0.000000
												CHANNELS 6 Xposition Yposition Zposition Xrotation Yrotation Zrotation
												End Site
												{
													OFFSET 0.000000 2.392700 0.001080
												}
											}
										}
									}
								}
								JOINT mixamorig:LeftHandMiddle1
								{
									OFFSET 9.533401 0.000000 0.000000
									CHANNELS 6 Xposition Yposition Zposition Xrotation Yrotation Zrotation
									JOINT mixamorig:LeftHandMiddle2
									{
										OFFSET 3.698196 0.000000 0.000000
										CHANNELS 6 Xposition Yposition Zposition Xrotation Yrotation Zrotation
										JOINT mixamorig:LeftHandMiddle3
										{
											OFFSET 2.950897 0.000000 0.000000
											CHANNELS 6 Xposition Yposition Zposition Xrotation Yrotation Zrotation
											JOINT mixamorig:LeftHandMiddle4
											{
												OFFSET 2.833900 0.000000 0.000000
												CHANNELS 6 Xposition Yposition Zposition Xrotation Yrotation Zrotation
												End Site
												{
													OFFSET 0.000000 2.833893 0.001278
												}
											}
										}
									}
								}
								JOINT mixamorig:LeftHandRing1
								{
									OFFSET 9.104500 -0.043060 -1.865119
									CHANNELS 6 Xposition Yposition Zposition Xrotation Yrotation Zrotation
									JOINT mixamorig:LeftHandRing2
									{
										OFFSET 3.153999 0.000000 0.000000
										CHANNELS 6 Xposition Yposition Zposition Xrotation Yrotation Zrotation
										JOINT mixamorig:LeftHandRing3
										{
											OFFSET 2.937698 0.000000 0.000000
											CHANNELS 6 Xposition Yposition Zposition Xrotation Yrotation Zrotation
											JOINT mixamorig:LeftHandRing4
											{
												OFFSET 2.647499 0.000000 0.000000
												CHANNELS 6 Xposition Yposition Zposition Xrotation Yrotation Zrotation
												End Site
												{
													OFFSET 0.000000 2.647507 0.001195
												}
											}
										}
									}
								}
								JOINT mixamorig:LeftHandPinky1
								{
									OFFSET 8.077797 -0.486984 -3.806321
									CHANNELS 6 Xposition Yposition Zposition Xrotation Yrotation Zrotation
									JOINT mixamorig:LeftHandPinky2
									{
										OFFSET 3.599998 0.000000 0.000000
										CHANNELS 6 Xposition Yposition Zposition Xrotation Yrotation Zrotation
										JOINT mixamorig:LeftHandPinky3
										{
											OFFSET 2.114197 0.000000 0.000000
											CHANNELS 6 Xposition Yposition Zposition Xrotation Yrotation Zrotation
											JOINT mixamorig:LeftHandPinky4
											{
												OFFSET 1.975700 0.000000 0.000000
												CHANNELS 6 Xposition Yposition Zposition Xrotation Yrotation Zrotation
												End Site
												{
													OFFSET 0.000000 1.975693 0.000892
												}
											}
										}
									}
								}
							}
						}
					}
				}
				JOINT mixamorig:RightShoulder
				{
					OFFSET -4.570000 10.946198 -2.628000
					CHANNELS 6 Xposition Yposition Zposition Xrotation Yrotation Zrotation
					JOINT mixamorig:RightArm
					{
						OFFSET -10.592800 -0.524796 -2.232100
						CHANNELS 6 Xposition Yposition Zposition Xrotation Yrotation Zrotation
						JOINT mixamorig:RightForeArm
						{
							OFFSET -27.841499 0.000000 0.000000
							CHANNELS 6 Xposition Yposition Zposition Xrotation Yrotation Zrotation
							JOINT mixamorig:RightHand
							{
								OFFSET -28.328800 0.000000 0.000000
								CHANNELS 6 Xposition Yposition Zposition Xrotation Yrotation Zrotation
								JOINT mixamorig:RightHandPinky1
								{
									OFFSET -8.076698 -0.486725 -3.806227
									CHANNELS 6 Xposition Yposition Zposition Xrotation Yrotation Zrotation
									JOINT mixamorig:RightHandPinky2
									{
										OFFSET -3.599998 0.000000 0.000000
										CHANNELS 6 Xposition Yposition Zposition Xrotation Yrotation Zrotation
										JOINT mixamorig:RightHandPinky3
										{
											OFFSET -2.114197 0.000000 0.000000
											CHANNELS 6 Xposition Yposition Zposition Xrotation Yrotation Zrotation
											JOINT mixamorig:RightHandPinky4
											{
												OFFSET -1.975700 0.000000 0.000000
												CHANNELS 6 Xposition Yposition Zposition Xrotation Yrotation Zrotation
												End Site
												{
													OFFSET 0.000000 1.975693 0.000919
												}
											}
										}
									}
								}
								JOINT mixamorig:RightHandRing1
								{
									OFFSET -9.103600 -0.043030 -1.865120
									CHANNELS 6 Xposition Yposition Zposition Xrotation Yrotation Zrotation
									JOINT mixamorig:RightHandRing2
									{
										OFFSET -3.153999 0.000000 0.000000
										CHANNELS 6 Xposition Yposition Zposition Xrotation Yrotation Zrotation
										JOINT mixamorig:RightHandRing3
										{
											OFFSET -2.937698 0.000000 0.000000
											CHANNELS 6 Xposition Yposition Zposition Xrotation Yrotation Zrotation
											JOINT mixamorig:RightHandRing4
											{
												OFFSET -2.647499 0.000000 0.000000
												CHANNELS 6 Xposition Yposition Zposition Xrotation Yrotation Zrotation
												End Site
												{
													OFFSET 0.000000 2.647507 0.001231
												}
											}
										}
									}
								}
								JOINT mixamorig:RightHandMiddle1
								{
									OFFSET -9.532501 0.000000 0.000000
									CHANNELS 6 Xposition Yposition Zposition Xrotation Yrotation Zrotation
									JOINT mixamorig:RightHandMiddle2
									{
										OFFSET -3.698196 0.000000 0.000000
										CHANNELS 6 Xposition Yposition Zposition Xrotation Yrotation Zrotation
										JOINT mixamorig:RightHandMiddle3
										{
											OFFSET -2.950897 0.000000 0.000000
											CHANNELS 6 Xposition Yposition Zposition Xrotation Yrotation Zrotation
											JOINT mixamorig:RightHandMiddle4
											{
												OFFSET -2.833900 0.000000 0.000000
												CHANNELS 6 Xposition Yposition Zposition Xrotation Yrotation Zrotation
												End Site
												{
													OFFSET 0.000000 2.833893 0.001318
												}
											}
										}
									}
								}
								JOINT mixamorig:RightHandIndex1
								{
									OFFSET -9.108299 -0.517853 2.259859
									CHANNELS 6 Xposition Yposition Zposition Xrotation Yrotation Zrotation
									JOINT mixamorig:RightHandIndex2
									{
										OFFSET -3.676399 0.000000 0.000000
										CHANNELS 6 Xposition Yposition Zposition Xrotation Yrotation Zrotation
										JOINT mixamorig:RightHandIndex3
										{
											OFFSET -2.883102 0.000000 0.000000
											CHANNELS 6 Xposition Yposition Zposition Xrotation Yrotation Zrotation
											JOINT mixamorig:RightHandIndex4
											{
												OFFSET -2.392700 0.000000 0.000000
												CHANNELS 6 Xposition Yposition Zposition Xrotation Yrotation Zrotation
												End Site
												{
													OFFSET 0.000000 2.392700 0.001113
												}
											}
										}
									}
								}
								JOINT mixamorig:RightHandThumb1
								{
									OFFSET -2.464798 -1.573944 2.681868
									CHANNELS 6 Xposition Yposition Zposition Xrotation Yrotation Zrotation
									JOINT mixamorig:RightHandThumb2
									{
										OFFSET -3.229782 -1.864716 1.864716
										CHANNELS 6 Xposition Yposition Zposition Xrotation Yrotation Zrotation
										JOINT mixamorig:RightHandThumb3
										{
											OFFSET -2.652542 -1.531448 1.531448
											CHANNELS 6 Xposition Yposition Zposition Xrotation Yrotation Zrotation
											JOINT mixamorig:RightHandThumb4
											{
												OFFSET -1.954605 -1.128494 1.128493
												CHANNELS 6 Xposition Yposition Zposition Xrotation Yrotation Zrotation
												End Site
												{
													OFFSET 0.000412 2.523392 0.000704
												}
											}
										}
									}
								}
							}
						}
					}
				}
			}
		}
	}
	JOINT mixamorig:LeftUpLeg
	{
		OFFSET 8.207800 -6.751701 -1.599600
		CHANNELS 6 Xposition Yposition Zposition Xrotation Yrotation Zrotation
		JOINT mixamorig:LeftLeg
		{
			OFFSET 0.000000 -44.370499 0.284600
			CHANNELS 6 Xposition Yposition Zposition Xrotation Yrotation Zrotation
			JOINT mixamorig:LeftFoot
			{
				OFFSET 0.000000 -44.427898 -2.982200
				CHANNELS 6 Xposition Yposition Zposition Xrotation Yrotation Zrotation
				JOINT mixamorig:LeftToeBase
				{
					OFFSET 0.000000 -8.728700 10.710600
					CHANNELS 6 Xposition Yposition Zposition Xrotation Yrotation Zrotation
					JOINT mixamorig:LeftToe_End
					{
						OFFSET 0.000000 -0.000700 9.278099
						CHANNELS 6 Xposition Yposition Zposition Xrotation Yrotation Zrotation
						End Site
						{
							OFFSET 0.000000 9.278100 0.000000
						}
					}
				}
			}
		}
	}
	JOINT mixamorig:RightUpLeg
	{
		OFFSET -8.207800 -6.751701 -1.599600
		CHANNELS 6 Xposition Yposition Zposition Xrotation Yrotation Zrotation
		JOINT mixamorig:RightLeg
		{
			OFFSET 0.000000 -44.370499 0.286200
			CHANNELS 6 Xposition Yposition Zposition Xrotation Yrotation Zrotation
			JOINT mixamorig:RightFoot
			{
				OFFSET 0.000000 -44.427700 -2.983800
				CHANNELS 6 Xposition Yposition Zposition Xrotation Yrotation Zrotation
				JOINT mixamorig:RightToeBase
				{
					OFFSET 0.000000 -8.728700 10.710600
					CHANNELS 6 Xposition Yposition Zposition Xrotation Yrotation Zrotation
					JOINT mixamorig:RightToe_End
					{
						OFFSET 0.000000 -0.000700 9.278100
						CHANNELS 6 Xposition Yposition Zposition Xrotation Yrotation Zrotation
						End Site
						{
							OFFSET 0.000000 9.278100 0.000000
						}
					}
				}
			}
		}
	}
}
MOTION
Frames: 3
Frame Time: 0.016667
6.891173 72.727600 -38.189751 69.968772 -19.595014 -4.067755 -0.000001 10.181599 0.131501 48.267311 3.035733 -2.445934 0.000001 10.083497 -1.000796 8.283514 -0.427566 1.998047 0.000000 9.100002 -1.373396 8.300766 -0.846079 2.254029 0.000002 16.671715 -2.516201 -3.780713 3.444271 -9.220974 0.000001 9.617916 1.684998 -42.672041 15.425251 10.474129 -0.000001 17.815201 2.585002 0.000000 -0.000000 -0.000000 3.067600 6.409500 9.283603 0.000000 -0.000000 -0.000000 -3.067600 6.409500 9.283503 0.000000 -0.000000 -0.000000 4.570403 10.946009 -2.628000 49.239182 -37.388001 16.332309 10.592407 -0.524605 -2.232108 -117.887043 0.012737 -38.687575 27.841501 -0.000001 0.000003 0.000003 -42.895108 0.000003 28.328796 -0.000001 -0.000000 -2.052879 -15.542463 84.566252 2.466104 -1.576205 2.681701 -29.029472 -31.390566 11.383168 3.229786 -1.864720 1.864718 10.527119 55.766097 0.139520 2.652613 -1.531481 1.531487 -7.894094 -28.082586 12.438879 1.954602 -1.128478 1.128496 0.000001 -0.000001 0.000001 9.109295 -0.518114 2.259870 2.387011 -3.323909 27.537357 3.676386 -0.000002 -0.000001 2.429048 4.748854 -54.160040 2.883098 0.000006 0.000005 0.129873 -1.227991 12.074128 2.392697 -0.000004 0.000000 0.000000 0.000000 -0.000002 9.533401 0.000017 0.000005 1.921298 -3.091781 23.617583 3.698185 0.000002 -0.000004 2.032950 4.436899 -49.216499 2.950901 -0.000003 0.000007 0.155721 -1.343125 13.226174 2.833904 -0.000017 -0.000001 -0.000000 0.000001 0.000002 9.104504 -0.043057 -1.865115 1.570251 -2.847506 19.640846 3.153989 0.000010 0.000002 1.601710 4.025881 -43.376991 2.937699 0.000004 -0.000003 0.175827 -1.425937 14.058228 2.647498 0.000004 0.000004 0.000001 -0.000000 0.000001 8.077793 -0.486978 -3.806320 -7.615349 -2.308757 16.266196 3.599987 -0.000006 0.000004 1.283561 3.660771 -38.633281 2.114199 -0.000009 -0.000003 0.181698 -1.449172 14.292229 1.975695 0.000012 -0.000004 -0.000001 -0.000001 -0.000001 -4.569998 10.946198 -2.627998 19.056725 58.029847 -21.363319 -10.592802 -0.524793 -2.232100 -36.113826 19.707894 6.958264 -27.841496 0.000003 0.000001 0.000008 53.477431 -0.000008 -28.328796 0.000002 0.000001 -30.617699 -6.476224 -86.480870 -8.076690 -0.486715 -3.806229 -6.007975 -3.684380 -18.306985 -3.599995 -0.000013 0.000000 0.001393 -0.113980 1.399340 -2.114201 -0.000010 0.000003 0.001508 -0.118664 1.456804 -1.975706 0.000001 0.000004 0.000000 -0.000001 -0.000001 -9.103611 -0.043046 -1.865121 -1.330167 -4.720809 -22.517553 -3.153997 -0.000006 0.000001 0.001491 -0.117959 1.448123 -2.937705 -0.000000 0.000003 0.002957 -0.166214 2.040793 -2.647491 0.000000 0.000001 0.000000 0.000000 -0.000000 -9.532498 0.000006 -0.000004 -1.413499 -4.242006 -25.975078 -3.698195 0.000009 -0.000002 0.000586 -0.073697 0.904722 -2.950895 -0.000014 -0.000005 0.000010 0.010454 -0.128351 -2.833893 -0.000015 0.000003 -0.000001 -0.000001 0.000000 -9.108310 -0.517843 2.259856 -1.098655 -3.952051 -28.021249 -3.676406 -0.000015 0.000000 0.000636 -0.076899 0.944075 -2.883105 0.000012 0.000002 0.000009 -0.008532 0.104812 -2.392700 -0.000015 0.000000 0.000000 0.000001 -0.000000 -2.464805 -1.573933 2.681866 -13.730933 12.963843 -35.681325 -3.229781 -1.864684 1.864718 5.241748 -6.642535 -1.316008 -2.652532 -1.531448 1.531447 -7.689775 -7.436208 -14.399246 -1.954608 -1.128507 1.128491 0.000000 0.000001 -0.000002 8.207800 -6.751693 -1.599600 -40.653839 -1.362504 30.195484 -0.000000 -44.370491 0.284592 44.166626 0.140038 9.227538 0.000007 -44.427895 -2.982201 37.368723 -19.157207 3.555240 -0.000004 -8.728697 10.710604 0.152702 -0.000003 0.000001 0.000001 -0.000689 9.278103 -0.000002 0.000000 0.000002 -8.207797 -6.751702 -1.599594 -54.587022 3.907501 -33.764965 0.000006 -44.370495 0.286204 19.726474 -4.505896 -7.199486 -0.000002 -44.427711 -2.983798 11.097227 -8.162613 23.699664 -0.000004 -8.728703 10.710599 -3.105557 0.000004 0.000024 0.000003 -0.000698 9.278106 -0.000001 -0.000001 -0.000000 
8.268829 70.879417 -39.037994 68.913200 -25.831180 -9.281520 0.000002 10.181602 0.131496 46.882726 5.841940 -3.259199 -0.000001 10.083507 -1.000805 8.402279 -0.023550 1.211706 0.000000 9.099985 -1.373404 8.434682 -0.627196 1.493867 0.000002 16.671701 -2.516200 -3.363332 3.535590 -8.878008 0.000001 9.617919 1.684993 -40.052274 18.782206 9.908598 0.000000 17.815201 2.584997 0.000000 -0.000000 -0.000000 3.067600 6.409500 9.283595 0.000000 -0.000000 -0.000000 -3.067600 6.409500 9.283494 0.000000 -0.000000 -0.000000 4.570403 10.945989 -2.627997 56.602949 -34.182153 20.254089 10.592393 -0.524595 -2.232107 -127.483760 4.178639 -39.879576 27.841501 0.000002 0.000007 0.000001 -42.582753 0.000003 28.328798 -0.000002 -0.000001 3.379895 -22.190156 85.322143 2.466108 -1.576221 2.681691 -20.840420 -16.976896 21.411613 3.229787 -1.864719 1.864717 6.246151 20.385173 -1.484420 2.652611 -1.531483 1.531486 -1.033184 -15.954028 19.979241 1.954598 -1.128482 1.128493 0.000000 -0.000000 -0.000000 9.109296 -0.518109 2.259867 2.921522 -5.868390 21.659069 3.676401 -0.000002 0.000001 0.661903 2.706951 -27.476060 2.883097 -0.000021 0.000000 0.196925 -1.507668 14.882439 2.392693 -0.000015 -0.000002 0.000000 0.000000 -0.000000 9.533399 -0.000004 -0.000003 2.220620 -5.415909 17.122413 3.698197 -0.000008 -0.000003 0.246401 1.682778 -16.659492 2.950902 0.000003 -0.000000 0.086899 -1.006363 9.870157 2.833892 0.000000 0.000002 -0.000000 0.000002 0.000000 9.104500 -0.043069 -1.865121 1.355883 -4.923042 10.572150 3.153995 0.000006 -0.000003 -0.000001 0.000003 -0.000017 2.937693 0.000001 0.000002 0.007055 -0.287756 2.809163 2.647492 -0.000015 -0.000000 -0.000000 -0.000002 -0.000000 8.077786 -0.486965 -3.806324 -0.605742 -5.679667 11.118080 3.599999 -0.000005 -0.000003 0.000000 0.000001 -0.000003 2.114193 0.000006 -0.000003 0.001428 -0.129443 1.263252 1.975708 0.000015 -0.000001 -0.000000 -0.000000 -0.000000 -4.569999 10.946199 -2.627999 13.741086 54.829395 -14.072915 -10.592800 -0.524810 -2.232095 -29.530999 23.091674 4.710310 -27.841492 -0.000006 -0.000007 -0.000016 58.480175 0.000025 -28.328787 -0.000005 -0.000003 -35.108935 -8.181904 -81.162018 -8.076700 -0.486731 -3.806221 -3.655638 -4.011156 -17.189648 -3.599997 -0.000020 -0.000003 0.012502 -0.341376 4.194329 -2.114197 0.000010 0.000004 0.010211 -0.308563 3.790580 -1.975710 -0.000002 0.000004 0.000000 -0.000000 0.000001 -9.103602 -0.043049 -1.865118 -1.203398 -4.261259 -23.294188 -3.154000 -0.000011 0.000001 0.006212 -0.240797 2.957251 -2.937700 0.000003 -0.000003 0.015376 -0.378512 4.651630 -2.647491 -0.000002 -0.000001 -0.000001 -0.000001 -0.000000 -9.532495 0.000007 0.000003 -1.284737 -3.609753 -28.287438 -3.698195 -0.000004 -0.000001 0.003024 -0.167974 2.062377 -2.950900 -0.000016 0.000001 0.001334 0.111580 -1.369860 -2.833901 -0.000015 -0.000002 -0.000001 -0.000001 0.000000 -9.108294 -0.517856 2.259862 -0.774127 -3.307189 -30.937055 -3.676402 0.000004 -0.000001 0.003823 -0.188954 2.320187 -2.883101 -0.000005 -0.000000 0.001023 0.097708 -1.199426 -2.392685 -0.000015 0.000000 0.000000 -0.000003 0.000000 -2.464793 -1.573941 2.681875 -13.285569 16.890843 -31.981640 -3.229781 -1.864692 1.864718 5.993039 -12.041973 -1.864638 -2.652533 -1.531446 1.531447 -6.062012 -10.740289 -15.291776 -1.954607 -1.128496 1.128493 0.000001 -0.000000 0.000001 8.207803 -6.751689 -1.599605 -41.788136 -1.924024 29.204707 -0.000002 -44.370495 0.284596 51.537455 -3.554398 8.570569 0.000003 -44.427898 -2.982202 34.081558 -23.461963 0.558156 -0.000005 -8.728693 10.710602 -3.337833 0.000020 -0.000020 -0.000002 -0.000704 9.278100 -0.000001 0.000002 -0.000001 -8.207801 -6.751694 -1.599604 -53.716125 3.418171 -31.918201 -0.000001 -44.370502 0.286197 13.502627 -2.099918 -7.681048 0.000002 -44.427696 -2.983799 15.771376 -13.474969 26.230822 -0.000008 -8.728699 10.710596 -2.576988 -0.000004 0.000016 0.000002 -0.000701 9.278096 0.000001 0.000001 -0.000001 
9.482228 68.565392 -40.263680 65.777167 -31.438889 -15.101178 0.000000 10.181607 0.131500 46.078720 8.091040 -3.639547 0.000003 10.083508 -1.000795 8.475769 0.277291 0.074617 0.000002 9.100006 -1.373398 8.514691 -0.534414 0.383464 0.000003 16.671705 -2.516194 -3.092315 3.651547 -8.334874 0.000000 9.617887 1.684996 -36.644559 22.255161 9.629773 0.000000 17.815216 2.584991 -0.000000 0.000000 0.000000 3.067600 6.409500 9.283596 -0.000000 0.000000 0.000000 -3.067600 6.409500 9.283494 -0.000000 0.000000 0.000000 4.570405 10.945996 -2.627989 62.631503 -30.123095 20.578428 10.592408 -0.524598 -2.232103 -132.531911 11.336592 -42.870041 27.841501 0.000002 0.000008 0.000005 -51.862760 0.000008 28.328785 -0.000000 -0.000000 9.548001 -18.336879 84.315933 2.466105 -1.576218 2.681695 -20.248229 -16.079414 21.662239 3.229792 -1.864714 1.864715 6.441227 21.562861 -0.845770 2.652620 -1.531479 1.531491 -0.826288 -16.044157 20.003864 1.954599 -1.128480 1.128490 0.000001 -0.000001 -0.000001 9.109300 -0.518095 2.259872 1.943821 -3.525114 21.321110 3.676408 0.000005 -0.000000 0.560178 2.501852 -25.237626 2.883093 -0.000006 0.000001 0.160166 -1.361883 13.414429 2.392700 -0.000001 0.000000 -0.000000 -0.000001 0.000000 9.533394 0.000007 0.000008 1.567878 -3.190961 17.844759 3.698204 -0.000004 0.000001 0.243802 1.674071 -16.570800 2.950907 -0.000004 -0.000000 0.074386 -0.931612 9.130331 2.833899 -0.000000 0.000001 -0.000000 -0.000001 0.000000 9.104502 -0.043055 -1.865112 0.983690 -2.652928 11.594519 3.153995 0.000002 0.000005 -0.000001 0.000001 0.000002 2.937697 -0.000008 -0.000001 0.001133 -0.115376 1.125917 2.647499 -0.000000 -0.000001 -0.000000 0.000000 -0.000000 8.077787 -0.486991 -3.806312 -0.633967 -3.137524 11.848576 3.600000 -0.000010 0.000000 -0.000000 0.000000 -0.000007 2.114195 -0.000003 0.000008 0.002321 -0.165088 1.611184 1.975700 0.000000 -0.000003 -0.000000 0.000000 0.000000 -4.569997 10.946190 -2.627992 10.935665 50.995674 -9.199957 -10.592794 -0.524802 -2.232096 -22.744007 25.179760 1.335298 -27.841496 0.000006 -0.000003 -0.000004 63.649679 0.000027 -28.328781 0.000000 -0.000002 -38.840462 -11.718192 -72.839070 -8.076697 -0.486726 -3.806227 -1.735731 -4.221141 -15.092281 -3.599998 -0.000017 0.000001 0.044850 -0.645512 7.949730 -2.114194 -0.000006 0.000005 0.038166 -0.595636 7.332066 -1.975711 -0.000000 -0.000003 -0.000002 0.000001 0.000001 -9.103603 -0.043040 -1.865121 -1.041610 -3.985057 -22.665793 -3.154002 0.000002 -0.000001 0.015433 -0.379165 4.659656 -2.937695 -0.000010 0.000001 0.053176 -0.702540 8.657364 -2.647495 -0.000011 -0.000001 0.000001 0.000002 0.000001 -9.532495 -0.000004 -0.000002 -1.155004 -3.237927 -29.225112 -3.698200 0.000000 0.000003 0.006763 -0.251205 3.085255 -2.950896 -0.000004 0.000004 0.002940 0.165727 -2.034850 -2.833897 -0.000003 0.000004 0.000002 0.000003 0.000001 -9.108298 -0.517855 2.259858 -0.455067 -2.975833 -32.542235 -3.676401 0.000005 0.000002 0.008580 -0.282973 3.475742 -2.883101 0.000010 0.000001 0.002786 0.161109 -1.977987 -2.392693 0.000001 0.000001 -0.000001 0.000003 0.000000 -2.464797 -1.573951 2.681872 -12.968822 19.053596 -28.864755 -3.229778 -1.864681 1.864720 6.611180 -16.614372 -2.285268 -2.652537 -1.531450 1.531449 -4.771655 -13.568701 -16.101385 -1.954605 -1.128510 1.128489 0.000000 -0.000000 0.000000 8.207802 -6.751701 -1.599600 -43.424451 -1.686013 26.629142 0.000000 -44.370506 0.284594 57.948117 -4.551008 7.593211 -0.000000 -44.427898 -2.982201 27.345625 -26.963686 -1.576930 0.000001 -8.728691 10.710602 -4.466306 -0.000006 0.000007 -0.000001 -0.000701 9.278096 -0.000000 -0.000001 0.000001 -8.207798 -6.751695 -1.599597 -52.091845 2.702267 -32.622626 0.000003 -44.370499 0.286198 8.339914 -2.548011 -7.773048 -0.000007 -44.427700 -2.983792 21.328178 -16.251697 28.759461 -0.000008 -8.728706 10.710597 -1.961147 -0.000010 -0.000039 -0.000007 -0.000705 9.278110 -0.000002 0.000001 0.000001 
